<?xml version="1.0" encoding="iso-8859-1"?>
<!-- Generator: Adobe Illustrator 19.0.0, SVG Export Plug-In . SVG Version: 6.00 Build 0)  -->
<svg version="1.1" id="Layer_1" xmlns="http://www.w3.org/2000/svg" xmlns:xlink="http://www.w3.org/1999/xlink" x="0px" y="0px"
	 viewBox="0 0 512 512" style="enable-background:new 0 0 512 512;" xml:space="preserve">
<path style="fill:#80D0E1;" d="M422.115,358.836l-86.043-93.818l-70.62,39.173c-5.739,3.184-12.687,3.307-18.535,0.328
	l-101.066-51.475l-55.704,65.729c-11.866,14-34.801,5.554-34.801-12.763V19.741C55.347,8.839,64.186,0,75.088,0h361.574
	c10.902,0,19.741,8.839,19.741,19.741v325.751C456.403,363.438,434.259,372.077,422.115,358.836z"/>
<path style="fill:#51B3DA;" d="M436.662,0H255.875v306.651c3.302,0,6.601-0.809,9.576-2.46l70.62-39.173l86.043,93.818
	c12.151,13.247,34.29,4.597,34.29-13.344V19.741C456.403,8.839,447.566,0,436.662,0z"/>
<path style="fill:#FFDA79;" d="M370.855,173.34h-229.96c-10.902,0-19.741-8.839-19.741-19.741V85.544
	c0-10.902,8.839-19.741,19.741-19.741h229.96c10.902,0,19.741,8.839,19.741,19.741V153.6
	C390.596,164.502,381.759,173.34,370.855,173.34z"/>
<g>
	<path style="fill:#36495E;" d="M436.662,512H75.088c-10.902,0-19.741-8.839-19.741-19.741V306.01c0-4.675,1.658-9.197,4.681-12.763
		l65.803-77.648c5.92-6.983,15.864-8.982,24.019-4.827l105.63,53.801l75.047-41.628c7.982-4.426,17.956-2.806,24.125,3.921
		l96.559,105.285c7.153,7.799,5.192,0.162,5.192,160.111C456.403,503.161,447.566,512,436.662,512z"/>
	<path style="fill:#36495E;" d="M451.212,332.149l-96.559-105.285c-6.17-6.725-16.143-8.345-24.125-3.921l-74.652,41.409V512
		h180.787c10.902,0,19.741-8.839,19.741-19.741C456.403,334.549,458.379,339.965,451.212,332.149z"/>
</g>
<g>
	<path style="fill:#FFDA79;" d="M254.076,384.325H140.895c-10.902,0-19.741-8.839-19.741-19.741
		c0-10.902,8.839-19.741,19.741-19.741h113.181c10.902,0,19.741,8.839,19.741,19.741
		C273.817,375.486,264.978,384.325,254.076,384.325z"/>
	<path style="fill:#FFDA79;" d="M254.076,442.881H140.895c-10.902,0-19.741-8.839-19.741-19.741s8.839-19.741,19.741-19.741h113.181
		c10.902,0,19.741,8.839,19.741,19.741S264.978,442.881,254.076,442.881z"/>
</g>
<g>
	<path style="fill:#FFD155;" d="M370.855,65.803h-114.98v107.538h114.98c10.902,0,19.741-8.839,19.741-19.741V85.544
		C390.596,74.64,381.759,65.803,370.855,65.803z"/>
	<path style="fill:#FFD155;" d="M273.817,364.584c0-10.296-7.883-18.739-17.942-19.65v39.3
		C265.934,383.325,273.817,374.88,273.817,364.584z"/>
	<path style="fill:#FFD155;" d="M273.817,423.14c0-10.296-7.883-18.739-17.942-19.65v39.3
		C265.934,441.879,273.817,433.435,273.817,423.14z"/>
</g>
<g>
</g>
<g>
</g>
<g>
</g>
<g>
</g>
<g>
</g>
<g>
</g>
<g>
</g>
<g>
</g>
<g>
</g>
<g>
</g>
<g>
</g>
<g>
</g>
<g>
</g>
<g>
</g>
<g>
</g>
</svg>
